<svg xmlns="http://www.w3.org/2000/svg" width="512" height="512" viewBox="0 0 512 512" fill="none">
  <defs>
    <linearGradient id="amber" x1="120" y1="86" x2="354" y2="388" gradientUnits="userSpaceOnUse">
      <stop offset="0" stop-color="#F0887A"/>
      <stop offset="0.5" stop-color="#E8705F"/>
      <stop offset="1" stop-color="#C05040"/>
    </linearGradient>
    <linearGradient id="paper" x1="256" y1="70" x2="256" y2="420" gradientUnits="userSpaceOnUse">
      <stop offset="0" stop-color="#ffffff"/>
      <stop offset="1" stop-color="#f1f2f4"/>
    </linearGradient>
    <linearGradient id="paperSoft" x1="256" y1="82" x2="256" y2="410" gradientUnits="userSpaceOnUse">
      <stop offset="0" stop-color="#fdfdfd"/>
      <stop offset="1" stop-color="#eef0f2"/>
    </linearGradient>
    <linearGradient id="frontSheen" x1="170" y1="70" x2="318" y2="372" gradientUnits="userSpaceOnUse">
      <stop offset="0" stop-color="#ffffff" stop-opacity="0.72"/>
      <stop offset="0.26" stop-color="#fffaf8" stop-opacity="0.48"/>
      <stop offset="0.56" stop-color="#ffd9cf" stop-opacity="0.16"/>
      <stop offset="1" stop-color="#ffffff" stop-opacity="0"/>
    </linearGradient>
    <linearGradient id="frontGlass" x1="256" y1="40" x2="256" y2="374" gradientUnits="userSpaceOnUse">
      <stop offset="0" stop-color="#ffffff" stop-opacity="0.24"/>
      <stop offset="0.18" stop-color="#ffffff" stop-opacity="0.14"/>
      <stop offset="1" stop-color="#ffffff" stop-opacity="0.04"/>
    </linearGradient>
    <radialGradient id="frontInnerGlow" cx="0" cy="0" r="1" gradientUnits="userSpaceOnUse" gradientTransform="translate(256 238) rotate(90) scale(220 172)">
      <stop offset="0.58" stop-color="#ffffff" stop-opacity="0"/>
      <stop offset="0.82" stop-color="#F4A093" stop-opacity="0.12"/>
      <stop offset="1" stop-color="#E8705F" stop-opacity="0.24"/>
    </radialGradient>
    <clipPath id="frontPageClip">
      <rect x="-138" y="-180" width="276" height="360" rx="33" transform="translate(0 18) rotate(0)"/>
    </clipPath>
    <filter id="shadow" x="-32%" y="-32%" width="164%" height="184%" color-interpolation-filters="sRGB">
      <feGaussianBlur in="SourceAlpha" stdDeviation="12"/>
      <feOffset dy="10"/>
      <feComponentTransfer>
        <feFuncA type="linear" slope="0.16"/>
      </feComponentTransfer>
      <feMerge>
        <feMergeNode/>
        <feMergeNode in="SourceGraphic"/>
      </feMerge>
    </filter>
    <filter id="frontGlow" x="-45%" y="-45%" width="190%" height="210%" color-interpolation-filters="sRGB">
      <feGaussianBlur stdDeviation="16"/>
    </filter>
  </defs>

  <g transform="translate(256 246)" filter="url(#shadow)">
    <g transform="scale(1.24)">
      <rect x="-138" y="-180" width="276" height="360" rx="33" fill="#E8705F" fill-opacity="0.26" filter="url(#frontGlow)" transform="translate(0 18) rotate(0)"/>
      <rect x="-138" y="-180" width="276" height="360" rx="33" fill="url(#paper)" fill-opacity="0.94" stroke="url(#amber)" stroke-opacity="0.72" stroke-width="7" transform="translate(0 18) rotate(0)"/>
      <rect x="-128" y="-170" width="256" height="340" rx="28" fill="url(#frontInnerGlow)" transform="translate(0 18) rotate(0)"/>
      <rect x="-138" y="-180" width="276" height="360" rx="33" fill="url(#frontGlass)" transform="translate(0 18) rotate(0)"/>
      <g clip-path="url(#frontPageClip)">
        <rect x="-138" y="-180" width="276" height="360" rx="33" fill="url(#frontSheen)" transform="translate(0 18) rotate(0) skewX(-8) translate(-20 0)"/>
      </g>
      <g transform="translate(0 18)">
        <circle cx="0" cy="-28" r="76" fill="url(#amber)" fill-opacity="0.98"/>
        <path d="M-38 -28 L-11 2 L40 -51" stroke="#ffffff" stroke-width="21" stroke-linecap="round" stroke-linejoin="round"/>
        <rect x="-58" y="82" width="116" height="18" rx="9" fill="url(#amber)" fill-opacity="0.96"/>
      </g>
    </g>
  </g>
</svg>